<svg width="1440" height="491" viewBox="0 0 1440 491" fill="none" xmlns="http://www.w3.org/2000/svg">
<path d="M-3.11111 25.1058C142.889 53.1062 350.889 137.106 630.889 81.1058C910.889 25.1058 1038.89 81.1058 1038.89 81.1058C1038.89 81.1058 1122.89 181.106 1436.89 25.1058C1750.89 -130.894 1436.89 491.106 1436.89 491.106H-3.11111C-3.11111 491.106 -149.111 -2.89453 -3.11111 25.1058Z" fill="#ACCCFB"/>
<path d="M-2 125.8C-2 125.8 224 5.79996 344 65.8C464 125.8 572 125.8 692 125.8C812 125.8 860 65.8 1061 65.8C1262 65.8 1438 125.8 1438 125.8V491.8H-2V125.8Z" fill="#0063F6"/>
</svg>
