<svg width="189" height="189" viewBox="0 0 189 189" fill="none" xmlns="http://www.w3.org/2000/svg">
<rect width="189" height="189" fill="white"/>
<path d="M96.1164 155.322C125.786 155.322 149.838 131.081 149.838 101.179C149.838 71.2767 125.786 47.0361 96.1164 47.0361C66.4469 47.0361 42.3951 71.2767 42.3951 101.179C42.3951 131.081 66.4469 155.322 96.1164 155.322Z" fill="#CCF4FA"/>
<path d="M130.405 79.4766H62.8258C62.3215 79.4766 61.8378 79.6772 61.4812 80.0345C61.1245 80.3917 60.9242 80.8761 60.9242 81.3813V142.715C70.9947 151.227 83.8479 155.715 97.0189 155.32C110.19 154.924 122.752 149.673 132.295 140.572V81.3813C132.295 80.8782 132.096 80.3955 131.742 80.0386C131.388 79.6818 130.908 79.4797 130.405 79.4766Z" fill="white"/>
<path d="M95.4271 155.917C82.658 155.908 70.3028 151.38 60.5439 143.131L60.3299 142.953V81.3813C60.3299 80.7183 60.5929 80.0824 61.061 79.6136C61.529 79.1447 62.1639 78.8813 62.8258 78.8813H130.405C131.065 78.8845 131.697 79.1493 132.163 79.6178C132.628 80.0863 132.889 80.7204 132.889 81.3813V140.786L132.699 140.965C122.661 150.571 109.31 155.927 95.4271 155.917V155.917ZM61.5185 142.393C71.4377 150.72 84.0637 155.111 97.0006 154.731C109.938 154.351 122.285 149.228 131.701 140.334V81.3813C131.702 81.2099 131.67 81.0399 131.606 80.8811C131.541 80.7223 131.446 80.5778 131.326 80.4561C131.205 80.3343 131.062 80.2377 130.904 80.1717C130.746 80.1058 130.576 80.0718 130.405 80.0718H62.8258C62.4791 80.0718 62.1466 80.2098 61.9014 80.4554C61.6562 80.701 61.5185 81.034 61.5185 81.3813V142.393Z" fill="#FFBE00"/>
<path d="M125.663 43.893C126.32 43.893 126.852 43.3547 126.852 42.6907C126.852 42.0266 126.32 41.4883 125.663 41.4883C125.007 41.4883 124.475 42.0266 124.475 42.6907C124.475 43.3547 125.007 43.893 125.663 43.893Z" fill="#00C7E5"/>
<path d="M40.4697 64.4526C41.1261 64.4526 41.6582 63.9143 41.6582 63.2502C41.6582 62.5862 41.1261 62.0479 40.4697 62.0479C39.8133 62.0479 39.2812 62.5862 39.2812 63.2502C39.2812 63.9143 39.8133 64.4526 40.4697 64.4526Z" fill="#00C7E5"/>
<path d="M96.568 48.9644C97.6314 48.9644 98.4934 48.0957 98.4934 47.024C98.4934 45.9523 97.6314 45.0835 96.568 45.0835C95.5047 45.0835 94.6426 45.9523 94.6426 47.024C94.6426 48.0957 95.5047 48.9644 96.568 48.9644Z" fill="#00C7E5"/>
<path d="M42.407 103.119C43.4703 103.119 44.3324 102.25 44.3324 101.179C44.3324 100.107 43.4703 99.2383 42.407 99.2383C41.3436 99.2383 40.4816 100.107 40.4816 101.179C40.4816 102.25 41.3436 103.119 42.407 103.119Z" fill="#00C7E5"/>
<path d="M149.838 103.119C150.901 103.119 151.763 102.25 151.763 101.179C151.763 100.107 150.901 99.2383 149.838 99.2383C148.774 99.2383 147.912 100.107 147.912 101.179C147.912 102.25 148.774 103.119 149.838 103.119Z" fill="#00C7E5"/>
<path d="M132.295 79.8335H60.9242V93.2502H132.295V79.8335Z" fill="#80E3F2"/>
<path d="M129.573 93.3218H61.6848C61.5476 93.2942 61.4241 93.2198 61.3353 93.1113C61.2466 93.0028 61.1981 92.8668 61.1981 92.7266C61.1981 92.5863 61.2466 92.4504 61.3353 92.3419C61.4241 92.2334 61.5476 92.159 61.6848 92.1313H129.573C129.711 92.159 129.834 92.2334 129.923 92.3419C130.012 92.4504 130.06 92.5863 130.06 92.7266C130.06 92.8668 130.012 93.0028 129.923 93.1113C129.834 93.2198 129.711 93.2942 129.573 93.3218V93.3218Z" fill="#00C7E5"/>
<path d="M34.7529 76.3335H28.4893C28.3317 76.3335 28.1806 76.2708 28.0691 76.1592C27.9577 76.0476 27.8951 75.8962 27.8951 75.7383C27.8951 75.5804 27.9577 75.429 28.0691 75.3174C28.1806 75.2058 28.3317 75.1431 28.4893 75.1431H34.7529C34.9105 75.1431 35.0616 75.2058 35.1731 75.3174C35.2845 75.429 35.3471 75.5804 35.3471 75.7383C35.3471 75.8962 35.2845 76.0476 35.1731 76.1592C35.0616 76.2708 34.9105 76.3335 34.7529 76.3335Z" fill="#80D8E5"/>
<path d="M31.6271 79.4883C31.4694 79.4883 31.3183 79.4256 31.2068 79.3139C31.0954 79.2023 31.0328 79.0509 31.0328 78.893V72.5835C31.0328 72.4257 31.0954 72.2743 31.2068 72.1626C31.3183 72.051 31.4694 71.9883 31.6271 71.9883C31.7847 71.9883 31.9358 72.051 32.0473 72.1626C32.1587 72.2743 32.2213 72.4257 32.2213 72.5835V78.893C32.2229 78.9716 32.2087 79.0498 32.1794 79.1227C32.1501 79.1957 32.1064 79.2619 32.0509 79.3175C31.9954 79.3731 31.9292 79.4169 31.8564 79.4463C31.7835 79.4756 31.7055 79.4899 31.6271 79.4883Z" fill="#80D8E5"/>
<path d="M164.29 121.857H158.027C157.889 121.83 157.766 121.755 157.677 121.647C157.588 121.538 157.54 121.402 157.54 121.262C157.54 121.122 157.588 120.986 157.677 120.878C157.766 120.769 157.889 120.695 158.027 120.667H164.29C164.427 120.695 164.551 120.769 164.64 120.878C164.728 120.986 164.777 121.122 164.777 121.262C164.777 121.402 164.728 121.538 164.64 121.647C164.551 121.755 164.427 121.83 164.29 121.857V121.857Z" fill="#80D8E5"/>
<path d="M161.164 125.012C161.007 125.012 160.856 124.949 160.744 124.838C160.633 124.726 160.57 124.575 160.57 124.417V118.095C160.57 117.937 160.633 117.786 160.744 117.674C160.856 117.563 161.007 117.5 161.164 117.5C161.321 117.503 161.47 117.567 161.581 117.678C161.692 117.789 161.756 117.938 161.759 118.095V124.417C161.756 124.574 161.692 124.723 161.581 124.834C161.47 124.945 161.321 125.009 161.164 125.012Z" fill="#80D8E5"/>
<path d="M74.9012 35.0597C74.7751 35.0597 74.6542 35.0095 74.5651 34.9202C74.4759 34.8309 74.4258 34.7098 74.4258 34.5835V32.9645C74.4258 32.9019 74.4381 32.84 74.462 32.7822C74.4859 32.7245 74.5209 32.672 74.5651 32.6278C74.6092 32.5835 74.6616 32.5485 74.7193 32.5245C74.777 32.5006 74.8388 32.4883 74.9012 32.4883C74.9637 32.4883 75.0255 32.5006 75.0832 32.5245C75.1408 32.5485 75.1933 32.5835 75.2374 32.6278C75.2815 32.672 75.3166 32.7245 75.3405 32.7822C75.3643 32.84 75.3766 32.9019 75.3766 32.9645V34.5835C75.3766 34.7098 75.3266 34.8309 75.2374 34.9202C75.1482 35.0095 75.0273 35.0597 74.9012 35.0597Z" fill="#80D8E5"/>
<path d="M74.9012 40.8216C74.7751 40.8216 74.6542 40.7714 74.5651 40.6821C74.4759 40.5928 74.4258 40.4717 74.4258 40.3454V38.7145C74.4258 38.6519 74.4381 38.59 74.462 38.5322C74.4859 38.4745 74.5209 38.422 74.5651 38.3778C74.6092 38.3335 74.6616 38.2985 74.7193 38.2745C74.777 38.2506 74.8388 38.2383 74.9012 38.2383C74.9637 38.2383 75.0255 38.2506 75.0832 38.2745C75.1408 38.2985 75.1932 38.3335 75.2374 38.3778C75.2815 38.422 75.3166 38.4745 75.3404 38.5322C75.3643 38.59 75.3766 38.6519 75.3766 38.7145V40.3335C75.3782 40.397 75.3671 40.4603 75.3439 40.5194C75.3207 40.5786 75.286 40.6325 75.2417 40.678C75.1974 40.7234 75.1444 40.7596 75.0859 40.7843C75.0275 40.8089 74.9647 40.8216 74.9012 40.8216Z" fill="#80D8E5"/>
<path d="M78.6332 37.2024H77.0287C76.9026 37.2024 76.7817 37.1522 76.6925 37.0629C76.6034 36.9736 76.5533 36.8525 76.5533 36.7262C76.5533 36.5999 76.6034 36.4788 76.6925 36.3895C76.7817 36.3002 76.9026 36.25 77.0287 36.25H78.6332C78.7593 36.25 78.8802 36.3002 78.9694 36.3895C79.0585 36.4788 79.1086 36.5999 79.1086 36.7262C79.1086 36.8525 79.0585 36.9736 78.9694 37.0629C78.8802 37.1522 78.7593 37.2024 78.6332 37.2024V37.2024Z" fill="#80D8E5"/>
<path d="M72.8926 37.2024H71.2762C71.1501 37.2024 71.0292 37.1522 70.9401 37.0629C70.8509 36.9736 70.8008 36.8525 70.8008 36.7262C70.8008 36.5999 70.8509 36.4788 70.9401 36.3895C71.0292 36.3002 71.1501 36.25 71.2762 36.25H72.8926C73.0187 36.25 73.1396 36.3002 73.2288 36.3895C73.318 36.4788 73.368 36.5999 73.368 36.7262C73.368 36.8525 73.318 36.9736 73.2288 37.0629C73.1396 37.1522 73.0187 37.2024 72.8926 37.2024V37.2024Z" fill="#80D8E5"/>
<path d="M76.4582 35.6428C76.3959 35.6433 76.3342 35.6308 76.2769 35.6062C76.2196 35.5816 76.168 35.5454 76.1254 35.4999C76.0805 35.4556 76.0448 35.4028 76.0205 35.3446C75.9961 35.2863 75.9836 35.2238 75.9836 35.1606C75.9836 35.0975 75.9961 35.035 76.0205 34.9767C76.0448 34.9185 76.0805 34.8657 76.1254 34.8214L77.3139 33.6309C77.4055 33.5621 77.5187 33.5287 77.6329 33.5368C77.747 33.545 77.8544 33.5941 77.9353 33.6751C78.0163 33.7562 78.0653 33.8637 78.0734 33.9781C78.0815 34.0924 78.0482 34.2058 77.9795 34.2975L76.791 35.488C76.7489 35.5351 76.6978 35.5732 76.6405 35.5998C76.5833 35.6264 76.5213 35.641 76.4582 35.6428V35.6428Z" fill="#80D8E5"/>
<path d="M77.5992 39.7741C77.5369 39.7746 77.4751 39.7621 77.4179 39.7375C77.3606 39.7129 77.309 39.6768 77.2664 39.6312L76.0779 38.4408C76.033 38.3965 75.9973 38.3436 75.9729 38.2854C75.9486 38.2271 75.936 38.1646 75.936 38.1015C75.936 38.0383 75.9486 37.9758 75.9729 37.9176C75.9973 37.8593 76.033 37.8065 76.0779 37.7622C76.1211 37.7176 76.1728 37.6821 76.23 37.6578C76.2871 37.6336 76.3486 37.6211 76.4107 37.6211C76.4727 37.6211 76.5342 37.6336 76.5913 37.6578C76.6485 37.6821 76.7002 37.7176 76.7434 37.7622L77.932 38.9527C77.9957 39.0207 78.0386 39.1056 78.0556 39.1973C78.0726 39.289 78.063 39.3836 78.028 39.4701C77.993 39.5565 77.934 39.6311 77.858 39.6849C77.782 39.7388 77.6922 39.7698 77.5992 39.7741V39.7741Z" fill="#80D8E5"/>
<path d="M73.3324 35.6429C73.2702 35.6427 73.2087 35.6299 73.1515 35.6054C73.0943 35.5808 73.0427 35.545 72.9996 35.5L71.918 34.381C71.8309 34.292 71.7821 34.1723 71.7821 34.0477C71.7821 33.923 71.8309 33.8033 71.918 33.7143C71.9623 33.6693 72.015 33.6336 72.0731 33.6092C72.1313 33.5848 72.1937 33.5723 72.2568 33.5723C72.3198 33.5723 72.3822 33.5848 72.4404 33.6092C72.4985 33.6336 72.5513 33.6693 72.5955 33.7143L73.784 34.9048C73.8692 34.9972 73.9165 35.1183 73.9165 35.2441C73.9165 35.3699 73.8692 35.491 73.784 35.5834C73.7197 35.6304 73.6447 35.6604 73.5658 35.6708C73.4869 35.6812 73.4066 35.6716 73.3324 35.6429V35.6429Z" fill="#80D8E5"/>
<path d="M72.1914 39.7741C72.0867 39.7591 71.9902 39.7087 71.918 39.6312C71.8328 39.5388 71.7855 39.4177 71.7855 39.2919C71.7855 39.1662 71.8328 39.045 71.918 38.9527L73.1066 37.7622C73.1508 37.7172 73.2035 37.6815 73.2617 37.6571C73.3198 37.6327 73.3822 37.6201 73.4453 37.6201C73.5083 37.6201 73.5707 37.6327 73.6289 37.6571C73.6871 37.6815 73.7398 37.7172 73.784 37.7622C73.8692 37.8546 73.9165 37.9757 73.9165 38.1015C73.9165 38.2272 73.8692 38.3484 73.784 38.4407L72.5955 39.6312C72.544 39.6851 72.4806 39.726 72.4104 39.7508C72.3402 39.7757 72.2652 39.7836 72.1914 39.7741V39.7741Z" fill="#80D8E5"/>
<path d="M136.205 44.7146C135.608 44.7169 135.023 44.5416 134.525 44.2108C134.027 43.88 133.638 43.4085 133.408 42.8562C133.177 42.3039 133.116 41.6955 133.231 41.1082C133.346 40.5209 133.633 39.9809 134.055 39.5569C134.476 39.1328 135.014 38.8436 135.6 38.726C136.186 38.6083 136.794 38.6675 137.346 38.896C137.898 39.1245 138.37 39.5121 138.703 40.0096C139.035 40.5071 139.212 41.0922 139.212 41.6908C139.212 42.4907 138.896 43.258 138.332 43.8247C137.769 44.3915 137.004 44.7114 136.205 44.7146V44.7146ZM136.205 39.8574C135.843 39.8551 135.488 39.9606 135.185 40.1606C134.883 40.3606 134.646 40.6461 134.506 40.9809C134.366 41.3157 134.328 41.6847 134.397 42.0411C134.466 42.3975 134.639 42.7253 134.895 42.9829C135.15 43.2405 135.477 43.4163 135.832 43.488C136.187 43.5597 136.556 43.5241 136.891 43.3857C137.226 43.2473 137.513 43.0123 137.714 42.7106C137.916 42.4088 138.024 42.0539 138.024 41.6908C138.024 41.2066 137.833 40.7421 137.492 40.3986C137.151 40.0551 136.689 39.8606 136.205 39.8574V39.8574Z" fill="#80D8E5"/>
<path d="M141.72 52.3692H135.445C135.367 52.3692 135.29 52.3537 135.219 52.3237C135.148 52.2936 135.083 52.2496 135.029 52.1941C134.974 52.1387 134.932 52.073 134.903 52.0008C134.875 51.9287 134.861 51.8516 134.862 51.7739C134.862 51.6181 134.923 51.4685 135.032 51.3572C135.141 51.2459 135.289 51.1818 135.445 51.1787H141.72C141.876 51.1818 142.024 51.2459 142.133 51.3572C142.242 51.4685 142.302 51.6181 142.302 51.7739C142.304 51.8516 142.29 51.9287 142.262 52.0008C142.233 52.073 142.19 52.1387 142.136 52.1941C142.082 52.2496 142.017 52.2936 141.946 52.3237C141.874 52.3537 141.798 52.3692 141.72 52.3692V52.3692Z" fill="#80D8E5"/>
<path d="M138.582 55.5361C138.503 55.5361 138.425 55.5203 138.352 55.4896C138.279 55.459 138.213 55.4141 138.158 55.3575C138.103 55.301 138.059 55.234 138.03 55.1604C138.001 55.0868 137.987 55.0081 137.988 54.9289V48.667C137.988 48.5091 138.051 48.3577 138.162 48.2461C138.274 48.1345 138.425 48.0718 138.582 48.0718C138.74 48.0718 138.891 48.1345 139.003 48.2461C139.114 48.3577 139.177 48.5091 139.177 48.667V54.9765C139.165 55.1271 139.097 55.2679 138.988 55.3714C138.878 55.4748 138.733 55.5336 138.582 55.5361Z" fill="#80D8E5"/>
<path d="M162.852 107.334C162.79 107.334 162.728 107.321 162.67 107.297C162.612 107.274 162.56 107.238 162.516 107.194C162.472 107.15 162.437 107.097 162.413 107.04C162.389 106.982 162.377 106.92 162.377 106.857V105.548C162.377 105.422 162.427 105.301 162.516 105.211C162.605 105.122 162.726 105.072 162.852 105.072C162.978 105.072 163.099 105.122 163.188 105.211C163.277 105.301 163.327 105.422 163.327 105.548V106.857C163.327 106.984 163.277 107.105 163.188 107.194C163.099 107.284 162.978 107.334 162.852 107.334V107.334Z" fill="#80D8E5"/>
<path d="M162.852 111.988C162.79 111.988 162.728 111.976 162.67 111.952C162.612 111.928 162.56 111.893 162.516 111.849C162.472 111.804 162.437 111.752 162.413 111.694C162.389 111.636 162.377 111.575 162.377 111.512V110.191C162.377 110.064 162.427 109.943 162.516 109.854C162.605 109.765 162.726 109.714 162.852 109.714C162.978 109.714 163.099 109.765 163.188 109.854C163.277 109.943 163.327 110.064 163.327 110.191V111.512C163.327 111.638 163.277 111.759 163.188 111.849C163.099 111.938 162.978 111.988 162.852 111.988V111.988Z" fill="#80D8E5"/>
<path d="M165.871 109.06H164.623C164.497 109.06 164.376 109.01 164.287 108.92C164.198 108.831 164.148 108.71 164.148 108.584C164.148 108.457 164.198 108.336 164.287 108.247C164.376 108.158 164.497 108.107 164.623 108.107H165.918C166.045 108.107 166.165 108.158 166.255 108.247C166.344 108.336 166.394 108.457 166.394 108.584C166.394 108.71 166.344 108.831 166.255 108.92C166.165 109.01 166.045 109.06 165.918 109.06H165.871Z" fill="#80D8E5"/>
<path d="M161.236 109.06H159.928C159.802 109.06 159.681 109.01 159.592 108.92C159.503 108.831 159.453 108.71 159.453 108.584C159.453 108.457 159.503 108.336 159.592 108.247C159.681 108.158 159.802 108.107 159.928 108.107H161.236C161.362 108.107 161.483 108.158 161.572 108.247C161.661 108.336 161.711 108.457 161.711 108.584C161.711 108.71 161.661 108.831 161.572 108.92C161.483 109.01 161.362 109.06 161.236 109.06Z" fill="#80D8E5"/>
<path d="M164.112 107.798C164.05 107.797 163.988 107.785 163.931 107.76C163.874 107.736 163.822 107.7 163.779 107.655C163.735 107.612 163.699 107.56 163.675 107.502C163.651 107.445 163.638 107.384 163.638 107.321C163.638 107.259 163.651 107.198 163.675 107.14C163.699 107.083 163.735 107.031 163.779 106.988L164.694 106.06C164.737 106.015 164.789 105.979 164.846 105.955C164.904 105.931 164.965 105.918 165.027 105.918C165.089 105.918 165.151 105.931 165.208 105.955C165.265 105.979 165.317 106.015 165.36 106.06C165.448 106.151 165.497 106.272 165.497 106.399C165.497 106.525 165.448 106.647 165.36 106.738L164.433 107.655C164.349 107.743 164.233 107.794 164.112 107.798V107.798Z" fill="#80D8E5"/>
<path d="M165.027 111.143C164.965 111.143 164.903 111.13 164.846 111.106C164.789 111.081 164.737 111.045 164.694 111L163.779 110.072C163.734 110.027 163.699 109.974 163.674 109.916C163.65 109.858 163.637 109.795 163.637 109.732C163.637 109.669 163.65 109.607 163.674 109.548C163.699 109.49 163.734 109.437 163.779 109.393C163.822 109.348 163.874 109.313 163.931 109.289C163.988 109.264 164.05 109.252 164.112 109.252C164.174 109.252 164.235 109.264 164.293 109.289C164.35 109.313 164.401 109.348 164.445 109.393L165.372 110.322C165.457 110.414 165.504 110.535 165.504 110.661C165.504 110.787 165.457 110.908 165.372 111C165.327 111.046 165.273 111.082 165.214 111.107C165.155 111.131 165.091 111.144 165.027 111.143V111.143Z" fill="#80D8E5"/>
<path d="M161.592 107.798C161.53 107.797 161.468 107.785 161.411 107.76C161.354 107.736 161.302 107.7 161.259 107.655L160.332 106.738C160.245 106.647 160.195 106.525 160.195 106.399C160.195 106.272 160.245 106.151 160.332 106.06C160.376 106.015 160.427 105.979 160.484 105.955C160.542 105.931 160.603 105.918 160.665 105.918C160.727 105.918 160.789 105.931 160.846 105.955C160.903 105.979 160.955 106.015 160.998 106.06L161.913 106.988C161.958 107.031 161.993 107.083 162.017 107.14C162.042 107.198 162.054 107.259 162.054 107.321C162.054 107.384 162.042 107.445 162.017 107.502C161.993 107.56 161.958 107.612 161.913 107.655C161.829 107.743 161.714 107.794 161.592 107.798Z" fill="#80D8E5"/>
<path d="M160.677 111.143C160.613 111.144 160.549 111.131 160.49 111.107C160.431 111.082 160.377 111.046 160.332 111C160.247 110.908 160.2 110.787 160.2 110.661C160.2 110.535 160.247 110.414 160.332 110.322L161.259 109.393C161.303 109.348 161.354 109.313 161.412 109.289C161.469 109.264 161.53 109.252 161.592 109.252C161.654 109.252 161.716 109.264 161.773 109.289C161.83 109.313 161.882 109.348 161.925 109.393C161.97 109.437 162.006 109.49 162.03 109.548C162.054 109.607 162.067 109.669 162.067 109.732C162.067 109.795 162.054 109.858 162.03 109.916C162.006 109.974 161.97 110.027 161.925 110.072L161.01 111C160.967 111.045 160.915 111.081 160.858 111.106C160.801 111.13 160.739 111.143 160.677 111.143V111.143Z" fill="#80D8E5"/>
<path d="M26.0766 68.7144C25.4783 68.7097 24.8946 68.5277 24.3994 68.1913C23.9041 67.8548 23.5194 67.3791 23.2936 66.824C23.0679 66.2689 23.0112 65.6593 23.1308 65.072C23.2504 64.4847 23.541 63.946 23.9657 63.5238C24.3905 63.1017 24.9306 62.8149 25.5178 62.6997C26.1051 62.5845 26.7132 62.646 27.2656 62.8764C27.8181 63.1069 28.29 63.4959 28.622 63.9946C28.954 64.4933 29.1311 65.0793 29.1311 65.6787C29.1328 66.0798 29.0547 66.4772 28.9014 66.8478C28.7482 67.2184 28.5229 67.5548 28.2386 67.8373C27.9543 68.1198 27.6168 68.3429 27.2456 68.4935C26.8744 68.644 26.4771 68.7191 26.0766 68.7144V68.7144ZM26.0766 63.8454C25.7162 63.8524 25.3659 63.9659 25.0697 64.1715C24.7734 64.3772 24.5444 64.6659 24.4113 65.0015C24.2782 65.3371 24.247 65.7045 24.3216 66.0577C24.3962 66.411 24.5733 66.7343 24.8306 66.9871C25.0879 67.24 25.4141 67.4111 25.7681 67.479C26.1222 67.5469 26.4883 67.5085 26.8207 67.3688C27.1531 67.229 27.4369 66.9941 27.6365 66.6934C27.836 66.3928 27.9426 66.0398 27.9426 65.6787C27.9427 65.4349 27.8942 65.1935 27.8 64.9688C27.7058 64.744 27.5677 64.5402 27.394 64.3695C27.2202 64.1988 27.0142 64.0645 26.788 63.9745C26.5618 63.8845 26.32 63.8406 26.0766 63.8454V63.8454Z" fill="#80D8E5"/>
<path d="M43.0607 93.9051H42.8705C42.5604 93.8553 42.2826 93.6846 42.0978 93.4303C41.9129 93.176 41.8361 92.8588 41.884 92.548C43.6246 81.0873 48.936 70.4706 57.0597 62.2138C65.1834 53.957 75.7041 48.4824 87.1193 46.5718C87.4345 46.5197 87.7575 46.5951 88.0171 46.7816C88.2768 46.968 88.4519 47.2501 88.5039 47.5658C88.5559 47.8815 88.4806 48.205 88.2945 48.4651C88.1083 48.7252 87.8267 48.9006 87.5115 48.9527C76.5943 50.7787 66.5315 56.0112 58.7586 63.9038C50.9856 71.7964 45.8994 81.9461 44.2254 92.9051C44.1805 93.1827 44.0389 93.4355 43.8257 93.6185C43.6125 93.8016 43.3415 93.9031 43.0607 93.9051Z" fill="#00C7E5"/>
<path d="M96.1164 156.512C82.8566 156.435 70.0672 151.582 60.0856 142.838C50.104 134.095 43.5968 122.046 41.7533 108.893C41.7298 108.737 41.7373 108.578 41.7754 108.426C41.8136 108.273 41.8816 108.129 41.9756 108.003C42.0695 107.877 42.1876 107.771 42.3228 107.69C42.4581 107.61 42.6079 107.558 42.7635 107.536C43.0755 107.495 43.3908 107.58 43.6403 107.772C43.8899 107.964 44.0532 108.247 44.0947 108.56C45.7888 121.062 51.9148 132.538 61.3545 140.893C70.7942 149.247 82.9183 153.923 95.5142 154.067C108.11 154.212 120.338 149.815 129.966 141.679C139.594 133.543 145.98 122.211 147.96 109.75C147.985 109.594 148.04 109.444 148.123 109.309C148.206 109.174 148.314 109.057 148.442 108.964C148.57 108.871 148.715 108.805 148.869 108.768C149.023 108.731 149.182 108.725 149.339 108.75C149.495 108.775 149.644 108.831 149.779 108.914C149.914 108.997 150.031 109.105 150.123 109.233C150.216 109.362 150.283 109.507 150.319 109.661C150.356 109.815 150.362 109.975 150.337 110.131C148.314 123.072 141.736 134.861 131.792 143.367C121.848 151.874 109.193 156.536 96.1164 156.512Z" fill="#00C7E5"/>
<path d="M149.267 94.4405C148.979 94.4433 148.699 94.341 148.481 94.1527C148.262 93.9643 148.119 93.7027 148.079 93.4167C146.518 82.3172 141.453 72.0089 133.624 63.9998C125.795 55.9908 115.613 50.7012 104.567 48.9048C104.257 48.8523 103.98 48.6787 103.797 48.4221C103.614 48.1654 103.541 47.8467 103.592 47.5357C103.642 47.2252 103.812 46.9469 104.066 46.7618C104.32 46.5766 104.637 46.4996 104.947 46.5476C116.495 48.4228 127.141 53.9503 135.328 62.3214C143.514 70.6926 148.811 81.4681 150.444 93.0714C150.467 93.2262 150.46 93.3842 150.423 93.5362C150.386 93.6883 150.319 93.8314 150.226 93.9575C150.133 94.0836 150.016 94.1901 149.882 94.2709C149.749 94.3518 149.6 94.4053 149.445 94.4286L149.267 94.4405Z" fill="#00C7E5"/>
<path d="M95.4271 155.917C82.658 155.908 70.3028 151.38 60.5439 143.131L60.3299 142.953V81.3813C60.3299 80.7183 60.5929 80.0824 61.061 79.6136C61.529 79.1447 62.1639 78.8813 62.8258 78.8813H130.405C131.065 78.8845 131.697 79.1493 132.163 79.6178C132.628 80.0863 132.889 80.7204 132.889 81.3813V140.786L132.699 140.965C122.661 150.571 109.31 155.927 95.4271 155.917V155.917ZM61.5185 142.393C71.4377 150.72 84.0637 155.111 97.0006 154.731C109.938 154.351 122.285 149.228 131.701 140.334V81.3813C131.702 81.2099 131.67 81.0399 131.606 80.8811C131.541 80.7223 131.446 80.5778 131.326 80.4561C131.205 80.3343 131.062 80.2377 130.904 80.1717C130.746 80.1058 130.576 80.0718 130.405 80.0718H62.8258C62.4791 80.0718 62.1466 80.2098 61.9014 80.4554C61.6562 80.701 61.5185 81.034 61.5185 81.3813V142.393Z" fill="#00C7E5"/>
<path d="M69.0656 87.6667C69.722 87.6667 70.2541 87.1391 70.2541 86.4881C70.2541 85.8372 69.722 85.3096 69.0656 85.3096C68.4092 85.3096 67.877 85.8372 67.877 86.4881C67.877 87.1391 68.4092 87.6667 69.0656 87.6667Z" stroke="#00C7E5" stroke-width="0.96" stroke-linecap="round" stroke-linejoin="round"/>
<path d="M73.6652 87.6667C74.3216 87.6667 74.8537 87.1391 74.8537 86.4881C74.8537 85.8372 74.3216 85.3096 73.6652 85.3096C73.0088 85.3096 72.4766 85.8372 72.4766 86.4881C72.4766 87.1391 73.0088 87.6667 73.6652 87.6667Z" stroke="#00C7E5" stroke-width="0.96" stroke-linecap="round" stroke-linejoin="round"/>
<path d="M78.2648 87.6667C78.9212 87.6667 79.4533 87.1391 79.4533 86.4881C79.4533 85.8372 78.9212 85.3096 78.2648 85.3096C77.6084 85.3096 77.0762 85.8372 77.0762 86.4881C77.0762 87.1391 77.6084 87.6667 78.2648 87.6667Z" stroke="#00C7E5" stroke-width="0.96" stroke-linecap="round" stroke-linejoin="round"/>
<path d="M113.435 136.677C116.319 133.811 112.137 124.903 104.093 116.781C96.0496 108.66 87.1905 104.399 84.3059 107.265C81.4213 110.132 85.6036 119.039 93.6473 127.161C101.691 135.283 110.55 139.543 113.435 136.677Z" fill="#CCF4FA"/>
<path d="M100.805 129.104C111.806 126.127 119.862 120.518 118.799 116.577C117.735 112.635 107.956 111.853 96.9548 114.83C85.9542 117.808 77.8983 123.417 78.9615 127.358C80.0248 131.3 89.8046 132.082 100.805 129.104Z" fill="#CCF4FA"/>
<path d="M105.955 123.848C108.897 112.759 108.108 102.926 104.194 101.884C100.28 100.842 94.722 108.987 91.7806 120.075C88.8392 131.163 89.6278 140.997 93.542 142.039C97.4562 143.08 103.014 134.936 105.955 123.848Z" fill="#CCF4FA"/>
<path d="M99.6225 135.798C105.042 139.369 109.773 140.56 111.769 138.56C113.255 137.036 112.958 133.977 111.258 130.227" stroke="#00C7E5" stroke-width="1.2" stroke-linecap="round" stroke-linejoin="round"/>
<path d="M87.5947 124.988C86.6795 123.905 85.8357 122.833 85.075 121.774" stroke="#00C7E5" stroke-width="1.2" stroke-linecap="round" stroke-linejoin="round"/>
<path d="M99.6225 135.798C97.6023 134.469 95.6798 132.997 93.8701 131.393" stroke="#00C7E5" stroke-width="1.2" stroke-linecap="round" stroke-linejoin="round"/>
<path d="M90.459 144.381C93.1807 145.131 96.6512 141.631 99.6225 135.798" stroke="#00C7E5" stroke-width="1.2" stroke-linecap="round" stroke-linejoin="round"/>
<path d="M86.7271 132.274C86.6676 133.536 86.6676 134.738 86.7271 135.845" stroke="#00C7E5" stroke-width="1.2" stroke-linecap="round" stroke-linejoin="round"/>
<path d="M101.869 100.893C99.1471 100.143 95.6766 103.643 92.7053 109.488" stroke="#00C7E5" stroke-width="1.2" stroke-linecap="round" stroke-linejoin="round"/>
<path d="M87.5947 124.988C88.5574 126.048 89.5439 127.238 90.6135 128.298C91.6832 129.357 92.7766 130.429 93.8701 131.393" stroke="#00C7E5" stroke-width="1.2" stroke-linecap="round" stroke-linejoin="round"/>
<path d="M98.4578 113.893C97.0553 114.167 95.6053 114.5 94.1316 114.905C92.6578 115.31 91.2434 115.75 89.8885 116.238" stroke="#00C7E5" stroke-width="1.2" stroke-linecap="round" stroke-linejoin="round"/>
<path d="M93.8701 131.393C95.2725 131.107 96.7225 130.774 98.1963 130.369C99.6701 129.965 101.084 129.524 102.439 129.048" stroke="#00C7E5" stroke-width="1.2" stroke-linecap="round" stroke-linejoin="round"/>
<path d="M98.4578 113.893C100.809 113.42 103.193 113.126 105.589 113.012" stroke="#00C7E5" stroke-width="1.2" stroke-linecap="round" stroke-linejoin="round"/>
<path d="M83.2684 119.119C85.3994 117.993 87.6124 117.03 89.8885 116.238" stroke="#00C7E5" stroke-width="1.2" stroke-linecap="round" stroke-linejoin="round"/>
<path d="M109.059 126.167C106.924 127.283 104.711 128.246 102.439 129.048" stroke="#00C7E5" stroke-width="1.2" stroke-linecap="round" stroke-linejoin="round"/>
<path d="M102.439 129.048C102.915 127.655 103.355 126.215 103.747 124.715C104.139 123.215 104.472 121.738 104.733 120.298" fill="#00C7E5"/>
<path d="M102.439 129.048C102.915 127.655 103.355 126.215 103.747 124.715C104.139 123.215 104.472 121.738 104.733 120.298" stroke="#00C7E5" stroke-width="1.2" stroke-linecap="round" stroke-linejoin="round"/>
<path d="M102.439 129.048C101.655 131.36 100.714 133.615 99.6225 135.798" stroke="#00C7E5" stroke-width="1.2" stroke-linecap="round" stroke-linejoin="round"/>
<path d="M86.7271 132.274C86.8405 129.828 87.1304 127.393 87.5947 124.988" stroke="#00C7E5" stroke-width="1.2" stroke-linecap="round" stroke-linejoin="round"/>
<path d="M83.2684 119.119C77.5516 122.143 74.1168 125.679 74.8537 128.464C75.5906 131.25 80.2853 132.572 86.7389 132.274" stroke="#00C7E5" stroke-width="1.2" stroke-linecap="round" stroke-linejoin="round"/>
<path d="M93.8701 131.393C91.5166 131.854 89.1337 132.149 86.7389 132.274" stroke="#00C7E5" stroke-width="1.2" stroke-linecap="round" stroke-linejoin="round"/>
<path d="M89.8885 116.238C90.6685 113.925 91.6098 111.669 92.7053 109.488" stroke="#00C7E5" stroke-width="1.2" stroke-linecap="round" stroke-linejoin="round"/>
<path d="M89.8885 116.238C89.4131 117.619 88.9734 119.072 88.5812 120.572C88.1889 122.072 87.8561 123.548 87.5947 124.988" stroke="#00C7E5" stroke-width="1.2" stroke-linecap="round" stroke-linejoin="round"/>
<path d="M92.7053 109.488C87.2857 105.917 82.5553 104.726 80.5586 106.714C79.1799 108.131 79.0967 111.691 81.1648 115.048" stroke="#00C7E5" stroke-width="1.2" stroke-linecap="round" stroke-linejoin="round"/>
<path d="M92.7053 109.488C94.7283 110.813 96.651 112.285 98.4578 113.893" stroke="#00C7E5" stroke-width="1.2" stroke-linecap="round" stroke-linejoin="round"/>
<path d="M96.2947 126.024C97.8503 126.024 99.1115 124.74 99.1115 123.155C99.1115 121.571 97.8503 120.286 96.2947 120.286C94.739 120.286 93.4779 121.571 93.4779 123.155C93.4779 124.74 94.739 126.024 96.2947 126.024Z" fill="white" stroke="#00C7E5" stroke-width="1.3" stroke-miterlimit="10"/>
<path d="M105.434 105.536C106.36 105.536 107.11 104.774 107.11 103.834C107.11 102.894 106.36 102.131 105.434 102.131C104.509 102.131 103.759 102.894 103.759 103.834C103.759 104.774 104.509 105.536 105.434 105.536Z" fill="white" stroke="#00C7E5" stroke-width="1.2" stroke-miterlimit="10"/>
<path d="M87.5471 142.56C88.4727 142.56 89.223 141.797 89.223 140.857C89.223 139.917 88.4727 139.155 87.5471 139.155C86.6216 139.155 85.8713 139.917 85.8713 140.857C85.8713 141.797 86.6216 142.56 87.5471 142.56Z" fill="white" stroke="#00C7E5" stroke-width="1.2" stroke-miterlimit="10"/>
<path d="M109.059 126.167C114.776 123.143 118.211 119.595 117.474 116.81C116.737 114.024 112.043 112.702 105.589 113.012" stroke="#00C7E5" stroke-width="1.2" stroke-linecap="round" stroke-linejoin="round"/>
<path d="M105.601 113.012C105.685 111.66 105.685 110.304 105.601 108.953" stroke="#00C7E5" stroke-width="1.2" stroke-linecap="round" stroke-linejoin="round"/>
<path d="M105.601 113.012C105.486 115.458 105.196 117.893 104.733 120.298" stroke="#00C7E5" stroke-width="1.2" stroke-linecap="round" stroke-linejoin="round"/>
<path d="M104.733 120.298C103.794 119.191 102.784 118.072 101.714 116.976C100.645 115.881 99.5512 114.845 98.4578 113.893" stroke="#00C7E5" stroke-width="1.2" stroke-linecap="round" stroke-linejoin="round"/>
<path d="M104.733 120.298C105.47 121.167 106.171 122.036 106.813 122.893" stroke="#00C7E5" stroke-width="1.2" stroke-linecap="round" stroke-linejoin="round"/>
</svg>
