<svg width="189" height="189" viewBox="0 0 189 189" fill="none" xmlns="http://www.w3.org/2000/svg">
<rect width="189" height="189" fill="white"/>
<path d="M95.8872 157.39C126.352 157.39 151.049 132.645 151.049 102.12C151.049 71.5957 126.352 46.8506 95.8872 46.8506C65.4224 46.8506 40.7257 71.5957 40.7257 102.12C40.7257 132.645 65.4224 157.39 95.8872 157.39Z" fill="#89BBF7"/>
<path d="M131.311 79.381H61.9483C61.4319 79.381 60.9367 79.5865 60.5715 79.9524C60.2064 80.3183 60.0013 80.8145 60.0013 81.3319V143.905C69.9195 152.261 82.4666 156.834 95.4248 156.817C110.088 156.817 123.17 151.94 133.051 142.613L133.282 81.3319C133.282 81.0736 133.231 80.8179 133.132 80.5796C133.032 80.3413 132.887 80.1252 132.703 79.9437C132.52 79.7622 132.302 79.619 132.063 79.5225C131.824 79.4259 131.569 79.3778 131.311 79.381V79.381Z" fill="white"/>
<path opacity="0.9" d="M133.014 80.0151H60.4028V92.9151H133.014V80.0151Z" fill="#93C6F9"/>
<path d="M60.7557 92.9028H130.459" stroke="#4A8CDD" stroke-linecap="round" stroke-linejoin="round"/>
<path d="M131.311 79.381H61.9483C61.4319 79.381 60.9367 79.5865 60.5715 79.9524C60.2064 80.3183 60.0013 80.8145 60.0013 81.3319V143.905C69.9195 152.261 82.4666 156.834 95.4248 156.817C110.088 156.817 123.413 151.94 133.282 142.613V81.3319C133.282 81.0736 133.231 80.8179 133.132 80.5796C133.032 80.3413 132.887 80.1252 132.703 79.9437C132.52 79.7622 132.302 79.619 132.063 79.5225C131.824 79.4259 131.569 79.3778 131.311 79.381V79.381Z" stroke="#4A8CDD" stroke-linecap="round" stroke-linejoin="round"/>
<path d="M64.8566 83.9658L67.0105 86.2215L64.8566 88.3796" stroke="#5E93D3" stroke-linecap="round" stroke-linejoin="round"/>
<path d="M67.7041 89.062H70.941" stroke="#5E93D3" stroke-linecap="round" stroke-linejoin="round"/>
<path d="M126.224 43.6441C126.896 43.6441 127.441 43.0982 127.441 42.4248C127.441 41.7515 126.896 41.2056 126.224 41.2056C125.552 41.2056 125.007 41.7515 125.007 42.4248C125.007 43.0982 125.552 43.6441 126.224 43.6441Z" fill="#4A8CDD"/>
<path d="M38.73 64.6402C39.4021 64.6402 39.9469 64.0943 39.9469 63.4209C39.9469 62.7475 39.4021 62.2017 38.73 62.2017C38.058 62.2017 37.5132 62.7475 37.5132 63.4209C37.5132 64.0943 38.058 64.6402 38.73 64.6402Z" fill="#4A8CDD"/>
<path d="M96.3375 48.8508C97.433 48.8508 98.321 47.961 98.321 46.8634C98.321 45.7658 97.433 44.876 96.3375 44.876C95.242 44.876 94.354 45.7658 94.354 46.8634C94.354 47.961 95.242 48.8508 96.3375 48.8508Z" fill="#4A8CDD"/>
<path d="M40.7136 104.12C41.809 104.12 42.6971 103.231 42.6971 102.133C42.6971 101.035 41.809 100.146 40.7136 100.146C39.6181 100.146 38.73 101.035 38.73 102.133C38.73 103.231 39.6181 104.12 40.7136 104.12Z" fill="#4A8CDD"/>
<path d="M151.049 104.12C152.144 104.12 153.032 103.231 153.032 102.133C153.032 101.035 152.144 100.146 151.049 100.146C149.953 100.146 149.065 101.035 149.065 102.133C149.065 103.231 149.953 104.12 151.049 104.12Z" fill="#4A8CDD"/>
<path d="M26.4395 76.1499H32.8768" stroke="#4A8CDD" stroke-width="0.8" stroke-miterlimit="10" stroke-linecap="round"/>
<path d="M29.6521 79.3689V72.9312" stroke="#4A8CDD" stroke-width="0.8" stroke-miterlimit="10" stroke-linecap="round"/>
<path d="M159.457 122.617H165.895" stroke="#4A8CDD" stroke-width="0.8" stroke-miterlimit="10" stroke-linecap="round"/>
<path d="M162.682 125.836V119.398" stroke="#4A8CDD" stroke-width="0.8" stroke-miterlimit="10" stroke-linecap="round"/>
<path d="M74.0928 32.4878V34.146" stroke="#4A8CDD" stroke-width="0.8" stroke-miterlimit="10" stroke-linecap="round"/>
<path d="M74.0928 38.3647V40.023" stroke="#4A8CDD" stroke-width="0.8" stroke-miterlimit="10" stroke-linecap="round"/>
<path d="M77.9382 36.3286H76.2832" stroke="#4A8CDD" stroke-width="0.8" stroke-miterlimit="10" stroke-linecap="round"/>
<path d="M72.0241 36.3286H70.3691" stroke="#4A8CDD" stroke-width="0.8" stroke-miterlimit="10" stroke-linecap="round"/>
<path d="M76.8673 33.5605L75.6991 34.7311" stroke="#4A8CDD" stroke-width="0.8" stroke-miterlimit="10" stroke-linecap="round"/>
<path d="M76.8673 38.9498L75.6991 37.7793" stroke="#4A8CDD" stroke-width="0.8" stroke-miterlimit="10" stroke-linecap="round"/>
<path d="M71.3183 33.5605L72.4865 34.7311" stroke="#4A8CDD" stroke-width="0.8" stroke-miterlimit="10" stroke-linecap="round"/>
<path d="M71.3183 38.9498L72.4865 37.7793" stroke="#4A8CDD" stroke-width="0.8" stroke-miterlimit="10" stroke-linecap="round"/>
<path d="M137.055 43.8756C138.419 43.8756 139.525 42.7674 139.525 41.4004C139.525 40.0334 138.419 38.9253 137.055 38.9253C135.69 38.9253 134.584 40.0334 134.584 41.4004C134.584 42.7674 135.69 43.8756 137.055 43.8756Z" stroke="#4A8CDD" stroke-width="0.8" stroke-miterlimit="10" stroke-linecap="round"/>
<path d="M136.276 51.6914H142.701" stroke="#FCFCFC" stroke-width="0.8" stroke-miterlimit="10" stroke-linecap="round"/>
<path d="M139.488 54.9226V48.4727" stroke="#FCFCFC" stroke-width="0.8" stroke-miterlimit="10" stroke-linecap="round"/>
<path d="M164.422 106.583V107.924" stroke="#FCFCFC" stroke-width="0.8" stroke-miterlimit="10" stroke-linecap="round"/>
<path d="M164.422 111.326V112.667" stroke="#FCFCFC" stroke-width="0.8" stroke-miterlimit="10" stroke-linecap="round"/>
<path d="M167.513 109.68H166.175" stroke="#FCFCFC" stroke-width="0.8" stroke-miterlimit="10" stroke-linecap="round"/>
<path d="M162.743 109.68H161.417" stroke="#FCFCFC" stroke-width="0.8" stroke-miterlimit="10" stroke-linecap="round"/>
<path d="M166.649 107.449L165.7 108.388" stroke="#FCFCFC" stroke-width="0.8" stroke-miterlimit="10" stroke-linecap="round"/>
<path d="M166.649 111.802L165.7 110.851" stroke="#FCFCFC" stroke-width="0.8" stroke-miterlimit="10" stroke-linecap="round"/>
<path d="M162.171 107.449L163.12 108.388" stroke="#FCFCFC" stroke-width="0.8" stroke-miterlimit="10" stroke-linecap="round"/>
<path d="M162.171 111.802L163.12 110.851" stroke="#FCFCFC" stroke-width="0.8" stroke-miterlimit="10" stroke-linecap="round"/>
<path d="M23.957 68.3589C25.3213 68.3589 26.4273 67.2508 26.4273 65.8838C26.4273 64.5168 25.3213 63.4087 23.957 63.4087C22.5927 63.4087 21.4868 64.5168 21.4868 65.8838C21.4868 67.2508 22.5927 68.3589 23.957 68.3589Z" stroke="#FCFCFC" stroke-width="0.8" stroke-miterlimit="10" stroke-linecap="round"/>
<path d="M41.3951 93.4883C43.2081 82.0269 48.5725 71.427 56.7292 63.1887C64.8859 54.9503 75.4217 49.4908 86.8458 47.5825" stroke="#4A8CDD" stroke-miterlimit="10" stroke-linecap="round"/>
<path d="M104.758 47.5581C116.31 49.4477 126.962 54.9672 135.178 63.3196C143.394 71.6719 148.747 82.4246 150.465 94.0247" stroke="#4A8CDD" stroke-miterlimit="10" stroke-linecap="round"/>
<path d="M150.319 111.119C148.169 124.147 141.437 135.974 131.339 144.46C121.242 152.946 108.446 157.53 95.2679 157.383C82.0896 157.235 69.3993 152.366 59.4932 143.657C49.5871 134.948 43.1197 122.973 41.2612 109.9" stroke="#4A8CDD" stroke-miterlimit="10" stroke-linecap="round"/>
<path d="M76.6483 106.291H114.725V117.337H76.6483" fill="#FCFCFC"/>
<path d="M76.6483 117.349C76.6483 118.447 85.1665 119.337 95.6804 119.337C106.194 119.337 114.7 118.459 114.7 117.349V106.291" fill="#FCFCFC"/>
<path d="M95.6925 108.278C106.204 108.278 114.725 107.388 114.725 106.291C114.725 105.193 106.204 104.303 95.6925 104.303C85.1814 104.303 76.6604 105.193 76.6604 106.291C76.6604 107.388 85.1814 108.278 95.6925 108.278Z" fill="#FCFCFC"/>
<path d="M76.6483 118.569H114.725V129.628H76.6483" fill="#FCFCFC"/>
<path d="M76.6483 129.652C76.6483 130.749 85.1665 131.639 95.6804 131.639C106.194 131.639 114.7 130.762 114.7 129.652V118.569" fill="#FCFCFC"/>
<path d="M95.6925 120.556C106.204 120.556 114.725 119.667 114.725 118.569C114.725 117.471 106.204 116.582 95.6925 116.582C85.1814 116.582 76.6604 117.471 76.6604 118.569C76.6604 119.667 85.1814 120.556 95.6925 120.556Z" fill="#FCFCFC"/>
<path d="M78.6075 107.9H114.725V118.703H78.6075" fill="#92B6EF"/>
<path d="M78.6075 118.727C78.6075 119.8 86.6876 120.666 96.6661 120.666C106.645 120.666 114.7 119.788 114.7 118.727V107.9" fill="#92B6EF"/>
<path d="M96.6661 109.839C106.64 109.839 114.725 108.971 114.725 107.9C114.725 106.829 106.64 105.961 96.6661 105.961C86.6926 105.961 78.6075 106.829 78.6075 107.9C78.6075 108.971 86.6926 109.839 96.6661 109.839Z" fill="#92B6EF"/>
<path d="M78.6075 120.264H114.725V131.066H78.6075" fill="#92B6EF"/>
<path d="M78.6075 131.091C78.6075 132.164 86.6876 133.029 96.6661 133.029C106.645 133.029 114.7 132.164 114.7 131.091V120.264" fill="#92B6EF"/>
<path d="M96.6661 122.202C106.64 122.202 114.725 121.334 114.725 120.263C114.725 119.193 106.64 118.325 96.6661 118.325C86.6926 118.325 78.6075 119.193 78.6075 120.263C78.6075 121.334 86.6926 122.202 96.6661 122.202Z" fill="#92B6EF"/>
<path d="M78.6075 132.676H114.725V143.491H78.6075" fill="#92B6EF"/>
<path d="M78.6075 143.515C78.6075 144.588 86.6876 145.454 96.6661 145.454C106.645 145.454 114.7 144.588 114.7 143.515V132.676" fill="#92B6EF"/>
<path d="M96.6661 134.615C106.64 134.615 114.725 133.747 114.725 132.676C114.725 131.605 106.64 130.737 96.6661 130.737C86.6926 130.737 78.6075 131.605 78.6075 132.676C78.6075 133.747 86.6926 134.615 96.6661 134.615Z" fill="#92B6EF"/>
<path d="M76.6483 131.286V142.357C76.6483 143.454 85.1665 144.344 95.6804 144.344C106.194 144.344 114.7 143.454 114.7 142.357V131.286" stroke="#4A8CDD" stroke-miterlimit="10"/>
<path d="M112.765 130.408C113.982 130.676 114.737 130.969 114.737 131.286C114.737 132.383 106.219 133.273 95.7047 133.273C85.1908 133.273 76.6726 132.383 76.6726 131.286C76.6726 131.017 77.1594 130.773 78.0477 130.542" stroke="#4A8CDD" stroke-miterlimit="10"/>
<path d="M76.6483 118.569V129.664C76.6483 130.762 85.1665 131.652 95.6804 131.652C106.194 131.652 114.7 130.762 114.7 129.664V118.569" stroke="#4A8CDD" stroke-miterlimit="10"/>
<path d="M112.838 117.728C114.055 117.984 114.725 118.276 114.725 118.593C114.725 119.691 106.206 120.581 95.6925 120.581C85.1786 120.581 76.6483 119.691 76.6483 118.569C76.6483 118.301 77.1472 118.045 78.0598 117.813" stroke="#4A8CDD" stroke-miterlimit="10"/>
<path d="M114.7 105.949V117.02C114.7 118.118 106.182 119.008 95.6682 119.008C85.1543 119.008 76.6361 118.118 76.6361 117.02V105.949" stroke="#4A8CDD" stroke-miterlimit="10"/>
<path d="M95.6925 107.937C106.204 107.937 114.725 107.047 114.725 105.949C114.725 104.852 106.204 103.962 95.6925 103.962C85.1814 103.962 76.6604 104.852 76.6604 105.949C76.6604 107.047 85.1814 107.937 95.6925 107.937Z" stroke="#4A8CDD" stroke-miterlimit="10"/>
<path d="M80.9926 111.339C81.5369 111.339 81.9783 110.809 81.9783 110.156C81.9783 109.503 81.5369 108.973 80.9926 108.973C80.4482 108.973 80.0069 109.503 80.0069 110.156C80.0069 110.809 80.4482 111.339 80.9926 111.339Z" fill="#DBF4B0"/>
<path d="M80.9926 115.96C81.5369 115.96 81.9783 115.43 81.9783 114.777C81.9783 114.124 81.5369 113.594 80.9926 113.594C80.4482 113.594 80.0069 114.124 80.0069 114.777C80.0069 115.43 80.4482 115.96 80.9926 115.96Z" fill="#DBF4B0"/>
<path d="M80.9926 111.339C81.5369 111.339 81.9783 110.809 81.9783 110.156C81.9783 109.503 81.5369 108.973 80.9926 108.973C80.4482 108.973 80.0069 109.503 80.0069 110.156C80.0069 110.809 80.4482 111.339 80.9926 111.339Z" fill="#DBF4B0"/>
<path d="M80.9926 115.96C81.5369 115.96 81.9783 115.43 81.9783 114.777C81.9783 114.124 81.5369 113.594 80.9926 113.594C80.4482 113.594 80.0069 114.124 80.0069 114.777C80.0069 115.43 80.4482 115.96 80.9926 115.96Z" fill="#DBF4B0"/>
<path d="M80.9926 124.531C81.5369 124.531 81.9783 124.001 81.9783 123.348C81.9783 122.695 81.5369 122.166 80.9926 122.166C80.4482 122.166 80.0069 122.695 80.0069 123.348C80.0069 124.001 80.4482 124.531 80.9926 124.531Z" fill="#DBF4B0"/>
<path d="M80.9926 129.164C81.5369 129.164 81.9783 128.635 81.9783 127.982C81.9783 127.328 81.5369 126.799 80.9926 126.799C80.4482 126.799 80.0069 127.328 80.0069 127.982C80.0069 128.635 80.4482 129.164 80.9926 129.164Z" fill="#DBF4B0"/>
<path d="M80.9926 137.004C81.5369 137.004 81.9783 136.475 81.9783 135.821C81.9783 135.168 81.5369 134.639 80.9926 134.639C80.4482 134.639 80.0069 135.168 80.0069 135.821C80.0069 136.475 80.4482 137.004 80.9926 137.004Z" fill="#DBF4B0"/>
<path d="M80.9926 141.637C81.5369 141.637 81.9783 141.108 81.9783 140.455C81.9783 139.801 81.5369 139.272 80.9926 139.272C80.4482 139.272 80.0069 139.801 80.0069 140.455C80.0069 141.108 80.4482 141.637 80.9926 141.637Z" fill="#DBF4B0"/>
</svg>
