<svg width="545" height="406" viewBox="0 0 545 406" fill="none" xmlns="http://www.w3.org/2000/svg">
<g clip-path="url(#clip0)">
<path d="M268.305 406C416.485 406 536.609 394.276 536.609 379.813C536.609 365.351 416.485 353.627 268.305 353.627C120.124 353.627 0 365.351 0 379.813C0 394.276 120.124 406 268.305 406Z" fill="#3F3D56"/>
<path opacity="0.1" d="M188.554 395.184C258.397 395.184 315.016 386.646 315.016 376.113C315.016 365.581 258.397 357.042 188.554 357.042C118.711 357.042 62.0918 365.581 62.0918 376.113C62.0918 386.646 118.711 395.184 188.554 395.184Z" fill="black"/>
<path d="M125.534 148.432C66.142 148.432 18.001 196.547 18.001 255.894C18.001 315.241 66.1648 363.356 125.534 363.356C132.851 363.358 140.149 362.618 147.317 361.147C137.085 344.337 131.689 325.034 131.72 305.358C131.72 253.475 168.519 210.176 217.464 200.111C207.878 184.327 194.382 171.278 178.279 162.226C162.176 153.174 144.01 148.423 125.534 148.432Z" fill="#A119E6"/>
<path opacity="0.1" d="M28.8528 258.985C28.8528 199.639 76.9995 151.529 136.385 151.529C142.167 151.53 147.938 151.992 153.646 152.913C144.479 150.445 135.027 149.199 125.534 149.207C66.142 149.207 18.001 197.322 18.001 256.668C18.001 310.18 57.1302 354.532 108.353 362.752C85.5337 356.589 65.3814 343.085 51.0114 324.329C36.6414 305.572 28.8539 282.608 28.8528 258.985Z" fill="black"/>
<path d="M216.951 199.331C232.747 189.752 245.805 176.266 254.864 160.173C263.923 144.081 268.678 125.926 268.669 107.462C268.669 48.115 220.528 0 161.137 0C101.745 0 53.6096 48.115 53.6096 107.462C53.6069 114.776 54.3474 122.072 55.8199 129.236C72.6385 119.005 91.9558 113.61 111.645 113.644C163.552 113.627 206.879 150.425 216.951 199.331Z" fill="#A119E6"/>
<path opacity="0.1" d="M259.401 107.462C259.413 124.291 255.465 140.887 247.874 155.91C240.283 170.932 229.263 183.96 215.703 193.94C216.164 195.722 216.592 197.515 216.968 199.331C232.764 189.752 245.822 176.266 254.881 160.173C263.94 144.081 268.695 125.926 268.686 107.462C268.686 48.115 220.545 0 161.154 0C159.598 0 158.055 0.0398462 156.517 0.108159C213.732 2.53896 259.401 49.6691 259.401 107.462Z" fill="black"/>
<path d="M212.257 247.657C210.496 248.555 208.821 249.615 207.255 250.822C205.682 252.039 204.477 253.669 203.775 255.53C202.801 253.509 202.271 251.311 201.622 249.165C200.378 245.271 198.909 241.453 197.224 237.729C199.999 236.67 202.405 234.824 204.145 232.417C207.563 235.804 211.044 239.334 212.735 243.803C213.026 244.577 213.875 245.402 214.074 246.08C214.342 247.087 212.997 247.247 212.257 247.657Z" fill="#FFBFC5"/>
<path d="M118.128 357.344C118.128 382.745 136.465 385.438 159.091 385.438C181.718 385.438 200.049 382.745 200.049 357.344C200.049 331.943 181.712 322.294 159.091 322.294C136.471 322.294 118.128 331.949 118.128 357.344Z" fill="#3F3D56"/>
<path d="M244.265 330.161C247.982 331.333 251.448 333.186 254.485 335.626C254.713 335.769 254.878 335.993 254.946 336.253C255.026 336.822 254.24 337.078 253.67 337.243C251.961 337.727 250.919 339.304 249.683 340.534C248.447 341.763 246.464 342.737 245.023 341.752C244.645 341.462 244.314 341.114 244.043 340.721L237.959 332.797C240.022 331.643 242.191 330.69 244.436 329.951" fill="#F1F1F1"/>
<path d="M255.208 331.812C256.017 332.632 256.348 333.816 257.156 334.659C257.687 335.167 258.294 335.587 258.957 335.905L263.616 338.467C264.339 338.895 265.102 339.252 265.895 339.532C266.772 339.781 267.664 339.972 268.566 340.101C269.859 340.351 271.123 340.732 272.338 341.239C273.249 341.615 274.269 342.258 274.263 343.243C274.223 343.727 274.023 344.184 273.693 344.541C271.859 346.853 268.606 347.388 265.667 347.678C259.31 348.35 252.804 348.851 246.589 347.353C245.375 347.13 244.228 346.634 243.234 345.902C241.36 344.348 240.956 341.518 241.685 339.19C241.883 338.295 242.412 337.508 243.166 336.987C244.151 336.418 245.376 336.685 246.51 336.6C247.703 336.432 248.859 336.06 249.928 335.501C250.64 335.182 251.454 334.767 251.637 333.924C251.819 333.082 250.856 332.353 251.067 331.647C251.466 330.059 254.468 331.055 255.208 331.812Z" fill="#575A89"/>
<path opacity="0.1" d="M255.208 331.812C256.017 332.632 256.348 333.816 257.156 334.659C257.687 335.167 258.294 335.587 258.957 335.905L263.616 338.467C264.339 338.895 265.102 339.252 265.895 339.532C266.772 339.781 267.664 339.972 268.566 340.101C269.859 340.351 271.123 340.732 272.338 341.239C273.249 341.615 274.269 342.258 274.263 343.243C274.223 343.727 274.023 344.184 273.693 344.541C271.859 346.853 268.606 347.388 265.667 347.678C259.31 348.35 252.804 348.851 246.589 347.353C245.375 347.13 244.228 346.634 243.234 345.902C241.36 344.348 240.956 341.518 241.685 339.19C241.883 338.295 242.412 337.508 243.166 336.987C244.151 336.418 245.376 336.685 246.51 336.6C247.703 336.432 248.859 336.06 249.928 335.501C250.64 335.182 251.454 334.767 251.637 333.924C251.819 333.082 250.856 332.353 251.067 331.647C251.466 330.059 254.468 331.055 255.208 331.812Z" fill="black"/>
<path d="M266.014 357.236L267.974 358.528C268.573 358.848 269.065 359.334 269.393 359.929C269.82 360.925 269.244 362.052 268.606 362.929C266.692 365.546 264.078 367.57 261.064 368.769C260.02 369.204 258.915 369.479 257.789 369.584C257.533 369.626 257.27 369.594 257.031 369.492C256.433 369.174 256.518 368.325 256.513 367.648C256.513 365.695 255.015 364.107 253.665 362.667C252.314 361.227 250.981 359.462 251.289 357.543C251.571 356.403 252.162 355.363 252.998 354.538C253.732 353.612 254.595 352.797 255.561 352.118C256.946 351.213 257.43 351.703 258.729 352.528C261.171 354.08 263.599 355.65 266.014 357.236Z" fill="#F1F1F1"/>
<path d="M259.657 366.766C260.189 366.9 260.746 366.907 261.281 366.787C261.817 366.666 262.316 366.421 262.739 366.071C263.581 365.366 264.263 364.488 264.738 363.498C265.217 362.622 265.632 361.712 265.98 360.777C266.39 359.678 266.766 358.466 267.735 357.8C268.874 356.991 270.549 357.31 271.722 358.09C272.896 358.87 273.784 360.026 274.793 361.027C277.168 363.396 280.296 364.893 283.508 365.872C286.721 366.851 290.054 367.341 293.352 367.973C294.014 368.061 294.654 368.267 295.243 368.582C296.576 369.396 297.026 371.212 296.65 372.726C296.274 374.24 295.289 375.493 294.212 376.631C293.315 377.693 292.202 378.553 290.948 379.153C289.89 379.539 288.776 379.75 287.65 379.779C282.186 380.148 276.698 379.718 271.358 378.504C269.398 377.969 267.403 377.571 265.388 377.314C264.163 377.206 262.921 377.24 261.697 377.155C259.25 376.987 256.857 376.357 254.644 375.299C254.106 375.101 253.654 374.723 253.363 374.229C253.202 373.776 253.168 373.288 253.266 372.817L254.08 365.678C254.154 365.058 254.359 364.284 254.98 364.187C255.601 364.09 255.994 364.699 256.365 365.166C257.083 366.024 258.067 366.62 259.161 366.859C260.255 367.098 261.397 366.967 262.409 366.487" fill="#575A89"/>
<path d="M212.354 276.741C215.937 276.337 220.095 276.268 222.522 278.938C224.009 280.578 224.459 282.872 224.971 285.018C225.775 288.629 227.083 292.109 228.856 295.356C229.996 297.371 231.38 299.256 232.274 301.396C233.169 303.537 233.505 305.95 234.029 308.279C236.128 317.41 241.255 325.563 248.578 331.414C247.284 334.926 243.542 336.936 239.902 337.835C239.023 338.126 238.08 338.156 237.185 337.921C236.507 337.627 235.905 337.184 235.424 336.623C233.724 334.785 232.139 332.844 230.679 330.81C225.433 323.808 220.112 316.664 217.253 308.404C216.25 305.501 215.247 302.142 212.428 300.906C210.821 300.212 208.981 300.428 207.255 300.724C203.398 301.376 199.603 302.349 195.908 303.633C191.966 305.005 187.454 306.69 183.848 304.595C181.689 303.337 180.431 300.929 179.935 298.481C179.439 296.033 179.69 293.506 179.935 291.024C179.959 289.905 180.227 288.806 180.721 287.802C181.22 287.05 181.861 286.403 182.607 285.895C185.828 283.456 189.41 281.536 193.225 280.202C196.865 278.915 200.784 278.494 204.584 277.851C207.162 277.403 209.752 277.033 212.354 276.741Z" fill="#575A89"/>
<path opacity="0.1" d="M212.354 276.741C215.937 276.337 220.095 276.268 222.522 278.938C224.009 280.578 224.459 282.872 224.971 285.018C225.775 288.629 227.083 292.109 228.856 295.356C229.996 297.371 231.38 299.256 232.274 301.396C233.169 303.537 233.505 305.95 234.029 308.279C236.128 317.41 241.255 325.563 248.578 331.414C247.284 334.926 243.542 336.936 239.902 337.835C239.023 338.126 238.08 338.156 237.185 337.921C236.507 337.627 235.905 337.184 235.424 336.623C233.724 334.785 232.139 332.844 230.679 330.81C225.433 323.808 220.112 316.664 217.253 308.404C216.25 305.501 215.247 302.142 212.428 300.906C210.821 300.212 208.981 300.428 207.255 300.724C203.398 301.376 199.603 302.349 195.908 303.633C191.966 305.005 187.454 306.69 183.848 304.595C181.689 303.337 180.431 300.929 179.935 298.481C179.439 296.033 179.69 293.506 179.935 291.024C179.959 289.905 180.227 288.806 180.721 287.802C181.22 287.05 181.861 286.403 182.607 285.895C185.828 283.456 189.41 281.536 193.225 280.202C196.865 278.915 200.784 278.494 204.584 277.851C207.162 277.403 209.752 277.033 212.354 276.741Z" fill="black"/>
<path d="M232.872 302.574C234.545 303.41 236.082 304.495 237.429 305.791C238.882 307.339 239.765 309.337 240.517 311.33C240.812 312.009 240.993 312.732 241.052 313.47C241.08 313.839 241.023 314.209 240.886 314.552C240.748 314.896 240.535 315.203 240.261 315.451C239.599 315.885 238.811 316.086 238.022 316.021C236.985 316.021 235.943 316.021 234.906 315.941C234.274 315.936 233.649 315.817 233.06 315.588C232.521 315.313 232.035 314.945 231.625 314.501C229.798 312.805 228.301 310.786 227.21 308.546C226.458 306.889 225.216 303.064 226.401 301.339C227.586 299.614 231.585 301.84 232.872 302.574Z" fill="#FFBFC5"/>
<path d="M182.612 301.982C187.916 303.69 193.561 303.872 199.104 304.39C208.426 305.262 217.636 307.082 226.589 309.821C228.424 310.391 230.298 311.005 231.773 312.229C232.972 313.337 233.987 314.629 234.781 316.055C236.237 318.272 237.556 320.576 238.728 322.954C239.737 325.106 240.506 327.361 241.44 329.541C244.588 336.844 249.565 343.214 255.892 348.037C257.031 348.919 258.336 349.875 258.632 351.293C258.767 352.207 258.618 353.141 258.205 353.968C256.838 357.151 254.001 359.468 251.021 361.238C249.745 362.001 248.333 362.769 247.706 364.124C243.183 362.257 239.817 358.272 237.02 354.264C234.223 350.257 231.733 345.936 228.144 342.611C226.566 341.143 224.772 339.868 223.525 338.103C221.628 335.416 221.115 331.738 218.563 329.666C216.011 327.594 212.297 327.862 208.999 328.186C192.1 329.833 175.072 329.642 158.214 327.617C154.711 327.201 151.111 326.666 148.075 324.862C145.038 323.057 142.674 319.687 143.102 316.186C143.506 312.907 146.235 310.311 149.282 309.03C152.33 307.749 155.691 307.516 158.966 307.146C167.118 306.246 174.899 304.766 182.612 301.982Z" fill="#575A89"/>
<path d="M134.141 308.785C134.557 306.007 135.633 303.377 136.311 300.65C136.65 298.934 137.079 297.237 137.599 295.567C137.599 295.515 137.638 295.47 137.656 295.424C137.827 295.41 137.994 295.359 138.144 295.273C138.293 295.188 138.422 295.07 138.521 294.929C138.615 294.686 138.64 294.423 138.595 294.166C138.575 293.895 138.575 293.623 138.595 293.352C139.706 291.493 140.919 289.697 142.23 287.973C144.508 284.722 146.514 281.267 148.496 277.817C150.125 274.97 151.754 272.158 153.099 269.187C154.113 266.961 154.961 264.632 156.078 262.481C160.065 254.738 167.198 249.029 174.876 244.93C182.248 240.996 190.217 238.349 197.964 235.218C198.161 235.416 198.342 235.629 198.505 235.856C202.692 241.577 203.142 249.091 204.868 255.968C205.563 258.746 206.492 261.513 206.492 264.37C206.492 268.595 204.47 272.523 202.459 276.24C200.573 279.741 198.631 283.242 196.13 286.333C194.945 287.802 193.641 289.179 192.45 290.631C187.562 296.614 184.743 303.975 181.997 311.199C180.413 315.383 177.816 319.089 176.073 323.211C175.4 324.793 175.013 326.495 174.17 327.998C173.327 329.501 171.863 330.81 170.143 330.845C169.639 330.829 169.14 330.751 168.656 330.611C162.43 329.011 157.217 324.918 152.045 321.081C151.116 320.398 150.188 319.727 149.197 319.112C148.205 318.497 147.203 317.933 146.189 317.404L143.876 316.135C141.358 314.757 138.829 313.374 136.203 312.207C135.41 311.897 134.648 311.516 133.924 311.068C133.932 310.302 134.004 309.539 134.141 308.785Z" fill="#3F3D56"/>
<path d="M215.532 247.178C223.454 247.178 229.876 240.761 229.876 232.844C229.876 224.928 223.454 218.51 215.532 218.51C207.61 218.51 201.188 224.928 201.188 232.844C201.188 240.761 207.61 247.178 215.532 247.178Z" fill="#FFBFC5"/>
<path d="M225.188 226.138C225.537 226.741 226.063 227.223 226.694 227.519C227.325 227.816 228.032 227.912 228.72 227.795C229.404 227.657 230.052 227.377 230.621 226.972C231.189 226.567 231.665 226.046 232.018 225.444C232.716 224.235 233.133 222.884 233.237 221.493C233.357 220.405 233.34 219.216 232.639 218.367C232.106 217.847 231.493 217.416 230.822 217.092C229.893 216.523 229.113 215.743 228.543 214.815C228.144 214.149 227.854 213.426 227.495 212.743C226.19 210.267 223.65 208.251 220.853 208.343C219.508 208.388 218.227 208.912 216.9 209.128C212.451 209.908 207.62 207.557 203.49 209.39C202.476 209.884 201.533 210.512 200.687 211.257C199.525 212.217 198.409 213.227 197.338 214.286C196.408 215.077 195.704 216.1 195.298 217.252C194.729 219.358 196.067 221.709 195.219 223.713C194.931 224.287 194.585 224.831 194.188 225.335C193.253 226.707 194.267 232.064 194.188 233.721C194.072 234.525 194.276 235.343 194.757 235.998C195.435 236.755 196.569 236.818 197.605 236.829H199.468C199.746 236.849 200.026 236.821 200.294 236.744C200.66 236.583 200.983 236.337 201.234 236.026C202.784 234.392 203.114 229.058 205.364 229.081C205.707 229.058 206.049 229.146 206.338 229.332C206.743 229.628 206.862 230.18 207.153 230.59C207.483 230.98 207.929 231.254 208.427 231.371C208.924 231.487 209.446 231.441 209.916 231.239C210.844 230.808 211.652 230.155 212.268 229.337C212.88 228.521 213.623 227.811 214.467 227.237C215.669 226.537 217.025 226.235 218.193 225.444C219.167 224.783 219.719 223.827 220.597 223.098C221.474 222.369 222.214 222.472 223.149 222.956C224.499 223.702 224.556 224.886 225.188 226.138Z" fill="#3F3D56"/>
<path opacity="0.1" d="M192.046 251.391C195.394 250.914 198.807 251.186 202.037 252.188C203.116 252.437 204.09 253.016 204.823 253.845C205.242 254.47 205.515 255.182 205.62 255.928C206.279 259.357 205.855 262.906 204.407 266.084C204.305 266.243 204.238 266.421 204.209 266.607C204.181 266.794 204.192 266.984 204.242 267.166C204.389 267.394 204.583 267.588 204.811 267.735C205.012 267.929 205.17 268.163 205.274 268.423C205.377 268.682 205.425 268.96 205.414 269.239C205.403 269.518 205.332 269.791 205.208 270.041C205.084 270.291 204.908 270.512 204.692 270.689C204.424 270.883 204.071 271.054 204.02 271.378C203.968 271.703 204.299 272.016 204.561 272.266C204.943 272.64 205.225 273.104 205.38 273.616C205.535 274.127 205.559 274.669 205.449 275.192C205.308 275.612 205.211 276.045 205.159 276.485C205.216 277.024 205.376 277.548 205.632 278.027C206.067 279.11 206.214 280.287 206.059 281.443C205.921 281.989 205.907 282.559 206.019 283.111C206.179 283.476 206.394 283.814 206.657 284.113C207.688 285.502 207.91 287.825 206.418 288.667C207.057 288.996 207.578 289.516 207.908 290.155C208.238 290.794 208.36 291.519 208.258 292.231C209.152 291.758 210.234 292.367 210.981 293.05C211.727 293.734 212.485 294.576 213.493 294.627C214.199 294.662 214.945 294.297 215.583 294.588C216.563 295.026 216.529 296.614 217.492 297.087C218.335 297.508 219.514 296.825 220.232 297.434C220.482 297.645 220.608 297.969 220.853 298.191C221.394 298.692 222.248 298.481 222.989 298.447C224.738 298.379 226.35 299.586 227.256 301.054C228.161 302.523 228.486 304.316 228.72 306.047C228.912 306.998 228.892 307.979 228.663 308.922C228.542 309.39 228.285 309.813 227.926 310.137C227.566 310.461 227.119 310.672 226.64 310.743C217.839 311.313 209.152 309.201 200.579 307.117C198.061 306.502 195.503 305.785 193.401 304.271C191.493 302.888 190.092 300.941 188.725 299.028C186.201 295.493 183.66 291.935 181.855 287.99C179.53 282.917 178.494 277.361 177.48 271.868C177.13 270.396 177.005 268.88 177.109 267.371C177.416 265.606 178.092 263.927 179.092 262.441C180.298 260.473 181.63 258.584 183.079 256.788C185.284 254.072 188.582 251.886 192.046 251.391Z" fill="black"/>
<path d="M192.621 250.822C195.972 250.344 199.387 250.618 202.618 251.624C203.697 251.869 204.672 252.446 205.404 253.275C205.821 253.902 206.093 254.614 206.201 255.359C206.857 258.788 206.434 262.336 204.988 265.515C204.886 265.673 204.819 265.852 204.79 266.038C204.762 266.224 204.773 266.415 204.823 266.596C204.97 266.824 205.164 267.018 205.393 267.166C205.593 267.36 205.751 267.594 205.855 267.853C205.959 268.113 206.006 268.391 205.995 268.67C205.984 268.949 205.914 269.222 205.789 269.472C205.665 269.722 205.489 269.943 205.273 270.12C205.005 270.314 204.652 270.485 204.601 270.809C204.549 271.133 204.88 271.447 205.17 271.697C205.552 272.071 205.834 272.535 205.989 273.046C206.145 273.558 206.169 274.1 206.059 274.623C205.918 275.043 205.821 275.476 205.769 275.915C205.823 276.455 205.982 276.979 206.236 277.458C206.675 278.54 206.824 279.717 206.669 280.874C206.493 281.328 206.455 281.824 206.562 282.3C206.668 282.775 206.914 283.208 207.267 283.544C208.298 284.933 208.52 287.255 207.027 288.132C207.667 288.459 208.188 288.978 208.518 289.616C208.848 290.254 208.97 290.979 208.867 291.69C209.762 291.217 210.844 291.827 211.59 292.51C212.337 293.193 213.094 294.035 214.103 294.087C214.809 294.121 215.549 293.756 216.193 294.047C217.173 294.491 217.139 296.073 218.101 296.552C218.945 296.967 220.124 296.284 220.841 296.893C221.092 297.104 221.217 297.428 221.462 297.65C222.004 298.151 222.858 297.941 223.599 297.906C225.347 297.838 226.959 299.045 227.865 300.514C228.69 302.06 229.188 303.759 229.329 305.506C229.512 306.448 229.492 307.418 229.272 308.353C229.151 308.821 228.895 309.244 228.535 309.568C228.176 309.891 227.729 310.102 227.25 310.174C218.449 310.744 209.762 308.632 201.189 306.548C198.671 305.933 196.107 305.216 194.011 303.702C192.103 302.324 190.701 300.371 189.334 298.459C186.811 294.929 184.27 291.371 182.464 287.426C180.14 282.348 179.103 276.792 178.089 271.304C177.74 269.831 177.615 268.312 177.719 266.801C178.01 265.039 178.668 263.358 179.65 261.866C180.853 259.897 182.185 258.011 183.638 256.219C185.865 253.492 189.163 251.311 192.621 250.822Z" fill="#3F3D56"/>
<path d="M517.913 150.351C519.453 150.058 520.916 149.452 522.212 148.571C523.509 147.69 524.61 146.553 525.449 145.229C526.287 143.906 526.845 142.425 527.088 140.877C527.331 139.33 527.253 137.749 526.859 136.232C526.466 134.716 525.766 133.296 524.801 132.061C523.837 130.827 522.629 129.803 521.253 129.053C519.877 128.303 518.361 127.844 516.8 127.703C515.239 127.562 513.665 127.743 512.177 128.234C516.64 134.7 518.672 142.533 517.913 150.351Z" fill="#F1F1F1"/>
<path d="M535.681 145.723C537.221 145.43 538.684 144.824 539.98 143.943C541.276 143.062 542.378 141.925 543.216 140.601C544.055 139.278 544.613 137.796 544.855 136.249C545.098 134.701 545.02 133.12 544.627 131.604C544.234 130.088 543.533 128.668 542.569 127.433C541.604 126.198 540.397 125.174 539.02 124.425C537.644 123.675 536.128 123.216 534.567 123.075C533.006 122.934 531.433 123.115 529.944 123.606C534.407 130.071 536.439 137.905 535.681 145.723Z" fill="#F1F1F1"/>
<path d="M517.913 150.351C515.056 150.894 512.099 150.332 509.641 148.777C507.184 147.222 505.411 144.791 504.681 141.977C503.951 139.164 504.32 136.178 505.712 133.626C507.104 131.074 509.415 129.146 512.177 128.234C508.31 122.638 502.817 118.363 496.441 115.986C490.065 113.609 483.112 113.244 476.522 114.942C490.275 133.303 496.6 156.167 494.239 178.98C500.589 177.106 506.235 173.38 510.453 168.28C514.671 163.179 517.268 156.936 517.913 150.351Z" fill="#F1F1F1"/>
<path d="M312.948 159.812C306.539 161.183 300.678 164.416 296.101 169.104C291.524 173.792 288.436 179.727 287.223 186.164C289.98 186.105 292.666 187.042 294.788 188.804C296.909 190.565 298.324 193.032 298.771 195.752C299.219 198.472 298.669 201.262 297.224 203.609C295.778 205.957 293.534 207.704 290.903 208.531C294.671 215.264 300.669 220.475 307.864 223.268C315.06 226.062 323.005 226.263 330.334 223.838C316.703 205.433 310.497 182.578 312.948 159.812Z" fill="#F1F1F1"/>
<path d="M287.234 186.164C285.589 186.193 283.97 186.576 282.486 187.287C281.003 187.997 279.69 189.019 278.636 190.281C277.583 191.544 276.814 193.019 276.381 194.605C275.949 196.191 275.863 197.852 276.13 199.474C276.397 201.096 277.01 202.642 277.928 204.006C278.846 205.371 280.047 206.522 281.449 207.381C282.852 208.24 284.423 208.787 286.056 208.986C287.689 209.184 289.346 209.029 290.914 208.531C287.11 201.734 285.808 193.82 287.234 186.164Z" fill="#F1F1F1"/>
<path d="M266.277 191.116C264.632 191.146 263.013 191.529 261.529 192.239C260.045 192.95 258.732 193.971 257.679 195.234C256.625 196.497 255.856 197.971 255.424 199.558C254.991 201.144 254.906 202.804 255.173 204.427C255.44 206.049 256.053 207.595 256.971 208.959C257.889 210.323 259.09 211.474 260.492 212.333C261.895 213.193 263.466 213.74 265.099 213.938C266.732 214.137 268.389 213.982 269.957 213.483C266.156 206.685 264.854 198.773 266.277 191.116Z" fill="#F1F1F1"/>
<path d="M441.74 86.8711L423.277 109.477C424.164 110.865 424.943 112.319 425.607 113.826L445.932 88.9432C444.537 88.1861 443.152 87.4916 441.74 86.8711Z" fill="#F1F1F1"/>
<path d="M494.239 178.98C490.011 180.207 485.581 180.584 481.207 180.087C476.833 179.591 472.601 178.231 468.757 176.087C464.912 173.942 461.533 171.056 458.814 167.596C456.095 164.136 454.09 160.17 452.917 155.93C451.744 151.689 451.425 147.258 451.98 142.894C452.534 138.529 453.95 134.318 456.146 130.505C458.342 126.692 461.274 123.353 464.772 120.681C468.27 118.009 472.264 116.059 476.522 114.942C469.155 105.155 459.903 96.9405 449.31 90.782L454.312 94.8637L428.45 126.527C428.59 132.775 426.964 138.936 423.759 144.303C420.553 149.669 415.898 154.023 410.327 156.864C404.757 159.706 398.498 160.919 392.268 160.366C386.039 159.812 380.092 157.513 375.111 153.734C370.13 149.955 366.316 144.848 364.109 139.001C361.901 133.153 361.389 126.802 362.631 120.677C363.873 114.551 366.818 108.9 371.129 104.372C375.44 99.8445 380.942 96.6238 387.002 95.08L384.923 93.3722L396.886 78.7362C375.612 80.2987 355.561 89.2682 340.224 104.083C324.886 118.897 315.234 138.618 312.948 159.812C321.272 158.011 329.97 159.472 337.248 163.893C344.525 168.314 349.827 175.359 352.059 183.572C354.29 191.786 353.282 200.543 349.242 208.035C345.201 215.528 338.437 221.185 330.345 223.838C341.283 238.592 356.428 249.697 373.793 255.697C391.158 261.698 409.933 262.313 427.654 257.463C445.375 252.612 461.216 242.522 473.098 228.517C484.98 214.511 492.349 197.244 494.239 178.98ZM395.547 239.203C390.451 235.048 386.703 229.477 384.776 223.193C382.848 216.909 382.829 210.196 384.721 203.901C386.612 197.606 390.328 192.014 395.4 187.83C400.472 183.646 406.672 181.06 413.215 180.397C419.758 179.735 426.351 181.026 432.159 184.108C437.968 187.19 442.731 191.924 445.847 197.712C448.964 203.5 450.292 210.081 449.666 216.623C449.039 223.165 446.485 229.375 442.326 234.467C436.751 241.293 428.691 245.627 419.918 246.516C411.145 247.404 402.379 244.773 395.547 239.203Z" fill="#F1F1F1"/>
<path d="M415.564 79.2827C413.76 79.0436 411.949 78.8538 410.13 78.7134L397.552 94.1179C399.317 94.2362 401.07 94.497 402.793 94.8978L415.564 79.2827Z" fill="#F1F1F1"/>
<path d="M416.402 101.672L431.708 82.9318C430.136 82.4194 428.556 81.9526 426.969 81.5314L412.688 99.0138C413.925 99.7774 415.113 100.62 416.242 101.536L416.402 101.672Z" fill="#F1F1F1"/>
</g>
<defs>
<clipPath id="clip0">
<rect width="545" height="406" fill="white"/>
</clipPath>
</defs>
</svg>
